<?xml version="1.0" encoding="UTF-8" standalone="no"?>
<svg
   xml:space="preserve"
   version="1.1"
   style="image-rendering:optimizeQuality;shape-rendering:geometricPrecision;text-rendering:geometricPrecision"
   viewBox="0 0 907.62543 308.03088"
   x="0px"
   y="0px"
   fill-rule="evenodd"
   clip-rule="evenodd"
   id="svg845"
   width="907.62543"
   height="308.03088"
   sodipodi:docname="double-arrow.svg"
   inkscape:version="1.1.1 (c3084ef, 2021-09-22)"
   inkscape:export-filename="/Users/xivk/double-arrow-16.png"
   inkscape:export-xdpi="4.9712138"
   inkscape:export-ydpi="4.9712138"
   xmlns:inkscape="http://www.inkscape.org/namespaces/inkscape"
   xmlns:sodipodi="http://sodipodi.sourceforge.net/DTD/sodipodi-0.dtd"
   xmlns="http://www.w3.org/2000/svg"
   xmlns:svg="http://www.w3.org/2000/svg"
   xmlns:rdf="http://www.w3.org/1999/02/22-rdf-syntax-ns#"
   xmlns:cc="http://creativecommons.org/ns#"
   xmlns:dc="http://purl.org/dc/elements/1.1/"><sodipodi:namedview
     id="namedview831"
     pagecolor="#ffffff"
     bordercolor="#666666"
     borderopacity="1.0"
     inkscape:pageshadow="2"
     inkscape:pageopacity="0.0"
     inkscape:pagecheckerboard="0"
     showgrid="false"
     inkscape:zoom="1.6713943"
     inkscape:cx="276.41592"
     inkscape:cy="154.06298"
     inkscape:window-width="1680"
     inkscape:window-height="927"
     inkscape:window-x="0"
     inkscape:window-y="25"
     inkscape:window-maximized="1"
     inkscape:current-layer="g839" /><metadata
     id="metadata849"><rdf:RDF><cc:Work
         rdf:about=""><dc:format>image/svg+xml</dc:format><dc:type
           rdf:resource="http://purl.org/dc/dcmitype/StillImage" /></cc:Work></rdf:RDF></metadata><defs
     id="defs835"><style
       type="text/css"
       id="style833">
   
    .fil0 {fill:black}
   
  </style></defs><g
     id="g839"
     transform="translate(-60.368764,-269.18309)"><path
       class="fil0"
       d="m 47.452612,404.5983 174.999998,-129 c 20,-12 30,-5 32,17 v 73 h 499 c 9,0 15,7 15,15 v 68 c 0,8 -6,15 -15,15 h -499 v 85 c -1,30 -12,35 -32,23 l -174.999998,-144 c -7,-7 -8,-15 0,-23 z"
       id="path837" /><path
       class="fil0"
       d="m 962.36295,404.17506 -175,-129 c -20,-12 -30,-5 -32,17 v 73 c 0,98 0,0 0,98 v 85 c 1,30 12,35 32,23 l 175,-144 c 7,-7 8,-15 0,-23 z"
       id="path837-3"
       style="fill:#7c7c7c;image-rendering:optimizeQuality;shape-rendering:geometricPrecision;text-rendering:geometricPrecision;fill-opacity:1" /></g></svg>
